<?xml version="1.0" encoding="utf-8"?>
<!-- Generator: Adobe Illustrator 19.2.1, SVG Export Plug-In . SVG Version: 6.00 Build 0)  -->
<svg version="1.1" id="layer" xmlns="http://www.w3.org/2000/svg" xmlns:xlink="http://www.w3.org/1999/xlink" x="0px" y="0px"
	 viewBox="0 0 652 652" style="enable-background:new 0 0 652 652;" xml:space="preserve">
<style type="text/css">
	.st0{fill:#E3120B;}
	.st1{fill:#FFFFFF;}
</style>
<g>
	<path class="st0" d="M20.8,246.9h300v150h-300V246.9z"/>
	<path class="st1" d="M159.4,277.9l0.2,7.3l-1.7,0.1c-0.2-4.4-1.1-5-7.8-5h-1.4v25.3c0,3.5,0.9,4.4,4.3,4.5l0.1,1.2
		c-3.3-0.1-5.8-0.1-7.4-0.1c-1.6,0-4.2,0-7.6,0.1l0.1-1.2c3.5-0.1,4.4-1,4.4-4.5v-25.4h-1.7c-6.9,0-7.9,0.6-8,5l-1.7-0.1l0.2-7.2
		c6.4,0.1,11.1,0.1,14.3,0.1C148.6,278,153.2,277.9,159.4,277.9z M162.2,310.2c3.1,0,3.5-0.6,3.6-5V284c-0.1-4.4-0.5-5-3.6-5
		l-0.1-1.1c4.3-0.2,5.2-0.4,9.1-1.1v14.4c2.5-2.6,4.5-3.8,7.3-3.8c4.6,0,7.1,2.8,7.1,8.1v9.6c0.1,4.4,0.5,5,3.6,5l0.1,1.1
		c-2.7-0.1-4.8-0.2-6.1-0.2c-1.3,0-3.2,0.1-5.8,0.2l0.1-1.1c2.5-0.4,2.7-0.8,2.8-5v-7c0-5.9-1-7.8-4.1-7.8c-1.6,0-3.4,1.1-4.2,2.7
		c-0.3,0.6-0.5,1.2-0.6,1.7c-0.1,0.3-0.1,0.4-0.1,0.5v9.8c0,4.2,0.3,4.6,2.8,5l0.1,1.1c-2.6-0.1-4.5-0.2-5.9-0.2
		c-1.4,0-3.4,0.1-6.1,0.2C162.1,311.2,162.2,310.2,162.2,310.2z M211.8,306.7c-2.9,3.6-5.8,5.1-9.5,5.1c-6.5,0-11-4.8-11-11.7
		c0-7.5,4.6-12.6,11.1-12.6c3.5,0,6.1,1.3,7.8,4.1c1.2,2,1.5,3.3,1.5,6.7H197c0.2,7,2.8,11,7,11c2.5,0,4.7-1.2,7-3.8
		C211,305.4,211.8,306.7,211.8,306.7z M196.9,296.5c4.3-0.1,5.6-0.2,9.9-0.6c-0.6-4.6-2.3-6.7-5.2-6.7
		C198.8,289.1,197.4,291.3,196.9,296.5z M38.7,354.5c3.8-0.1,4.8-1.1,4.8-5v-24.3c0-3.9-1-4.9-4.8-5l-0.2-1.3l8,0.1l12.6-0.2
		l3.3,0.1l0.2,7.5l-2.1,0.2c-0.4-4.7-1.2-5.2-8.7-5.2h-1.2l-0.5,0.1v14c1,0,1.8,0.1,2.2,0.1c0.8,0.1,1.6,0.1,2.4,0.1
		c4.1,0,5-0.8,5.1-4.7h1.8c-0.2,3.1-0.2,4.7-0.2,6.2c0,1.3,0,3,0.1,5.3H60c-0.2-3.7-1.1-4.4-5-4.5l-2.8-0.1l-2,0.1v10.9
		c0,4.4,0.3,4.6,4.7,4.6c5.8,0,7.5-1.3,8-6.2l2.1,0.1l-1.2,8.6l-4,0.1l-12.6-0.1l-8.6,0.1L38.7,354.5L38.7,354.5z M91.3,352.1
		c-3,3.1-5.3,4.2-8.8,4.2c-6.9,0-11.3-5.3-11.3-13.4c0-8.4,4.7-13.7,12.2-13.7c2,0,4,0.4,7,1.2l0.1,6.1l-2.3,0.2
		c-0.8-4.6-1.8-5.7-4.8-5.7c-3.9,0-5.9,3.4-5.9,10.1c0,7.8,2.4,12.2,6.9,12.2c2.3,0,4.1-1,6.2-3.2C90.6,350.2,91.3,352.1,91.3,352.1
		z M96.9,343.9v-0.8c0-8.7,4.7-13.8,12.8-13.8c7.5,0,12.8,5.5,12.8,13.5c0,8-5.1,13.5-12.9,13.5C102.1,356.4,97.1,351.4,96.9,343.9z
		 M103.3,343.3c0.5,7.3,3,11.3,7,11.3c3.8,0,6-3.9,6-10.3c0-7.7-3.1-13-7.4-13c-3.8,0-5.7,3.2-5.7,9.6
		C103.2,341.8,103.2,342.6,103.3,343.3z M128.6,354.6c3.4,0,3.9-0.7,3.9-5.6v-12c0-4.7-0.5-5.4-3.9-5.4l-0.1-1.2
		c4.6-0.3,5.6-0.4,9.5-1.3l0.3,4.6c3-3.2,5.2-4.4,8.4-4.4c5.1,0,7.9,3.3,7.9,9V349c-0.1,0.4-0.1,0.8-0.1,1.2c0,3.3,0.9,4.3,4.1,4.3
		l0.1,1.2c-3-0.1-5.3-0.2-6.8-0.2c-1.4,0-3.7,0.1-6.4,0.2l0.1-1.2c2.7-0.4,3-1,3-5.6l0.1-3.2v-4.6c0-6.5-1.2-8.6-4.5-8.6
		c-2,0-3.8,1.1-4.8,2.9c-0.4,0.8-0.8,2-0.8,2.5v11.1c0.1,4.6,0.3,5.1,3.1,5.6l0.2,1.2c-2.9-0.1-5.1-0.2-6.6-0.2
		c-1.5,0-3.8,0.1-6.7,0.2C128.5,355.8,128.6,354.6,128.6,354.6z M163.1,343.9v-0.8c0-8.7,4.8-13.8,12.8-13.8
		c7.6,0,12.9,5.5,12.9,13.5c0,8-5.1,13.5-13,13.5C168.3,356.4,163.3,351.4,163.1,343.9z M169.5,343.3c0.5,7.3,3,11.3,6.9,11.3
		c3.8,0,6-3.9,6-10.3c0-7.7-3.1-13-7.3-13c-3.8,0-5.7,3.2-5.7,9.6C169.4,341.8,169.4,342.6,169.5,343.3z M194.5,354.6
		c3.5,0,4-0.7,4-5.6v-12c0-4.7-0.5-5.4-4-5.4l-0.1-1.2c4.7-0.3,5.7-0.4,9.6-1.3l0.2,4.6c2.9-3.2,5.2-4.4,8.3-4.4
		c3.5,0,5.6,1.4,7.1,4.8c3.2-3.5,5.5-4.8,8.7-4.8c4.9,0,7.7,3.3,7.7,9V349c0,0.4-0.1,0.8-0.1,1.2c0,3.3,1,4.3,4.1,4.3l0.1,1.2
		c-3-0.1-5.3-0.2-6.8-0.2c-1.4,0-3.5,0.1-6.4,0.2l0.1-1.2c2.8-0.4,3-1,3.1-5.6v-7.8c0-6.4-1.1-8.6-4.4-8.6c-1.9,0-3.9,1.2-4.8,2.9
		c-0.3,0.6-0.5,1.2-0.7,2c-0.1,0.3-0.1,0.5-0.1,0.6v11.1c0,4.6,0.3,5.1,3.1,5.6l0.1,1.2c-2.8-0.1-4.8-0.2-6.2-0.2
		c-1.3,0-3.4,0.1-6.1,0.2l0.1-1.2c2.8-0.4,3-1,3.1-5.6v-7.8c0-6.4-1.2-8.6-4.4-8.6c-2,0-3.8,1.1-4.7,2.9c-0.4,0.8-0.7,2-0.7,2.5v11
		c0.1,4.6,0.3,5.1,3.1,5.6l0.1,1.2c-2.9-0.1-5-0.2-6.4-0.2c-1.5,0-3.8,0.1-6.8,0.2C194.4,355.8,194.5,354.6,194.5,354.6z
		 M254.7,329.2v16.7l0.1,3.2c0,4.9,0.5,5.6,4,5.6l0.1,1.2c-3.2-0.1-5.6-0.2-7.2-0.2c-1.5,0-3.9,0.1-7,0.2l0.1-1.2
		c3.4,0,3.9-0.7,3.9-5.6l0.1-3.2v-5.5l-0.1-3.3c0-4.7-0.5-5.4-3.9-5.5l-0.1-1.2C249.4,330.2,250.5,330,254.7,329.2z M248,320.6
		c0-1.9,1.5-3.4,3.4-3.4c2,0,3.5,1.6,3.5,3.4c0,2-1.5,3.5-3.5,3.5C249.5,324.1,248,322.6,248,320.6L248,320.6z M265.1,354.9
		l-0.2-5.3l2.6-0.1c1.2,4,2,4.8,4.8,4.8c2.4,0,4-1.2,4-3.1c0-1.7-1.1-3.1-4.4-5.2c-1.6-1.2-2.8-1.9-3.4-2.4
		c-1.4-1.1-2.3-2.3-2.9-3.7c-0.3-0.8-0.5-1.7-0.5-2.8c0-4.6,3.2-7.7,8.1-7.7c1.8,0,2.9,0.2,7,1.2l0.1,5.1l-2.6,0.1
		c-0.6-3.4-1.6-4.6-4.1-4.6c-2.3,0-4,1.3-4,3.2c0,1.8,0.8,2.9,3.5,4.6c2,1.3,3.8,2.7,5.6,4.2c1.5,1.4,2.3,3.2,2.3,5.1
		c0,4.6-3.9,8.1-8.8,8.1C270.3,356.4,268.5,356,265.1,354.9L265.1,354.9z M286.6,330.9c4.1-0.3,5.7-2.1,6.8-7.5h2.3v7h6.6l-0.7,2.9
		h-5.8v12.6c0,6.3,0.8,7.8,4.4,7.8c0.8,0,1.6-0.1,2.9-0.5v1.5c-1.7,1-4.2,1.5-6.7,1.5c-2.3,0-4.4-1.3-5.3-3.2
		c-0.8-1.6-1.1-3.2-1.1-6.7v-13.2h-3.3L286.6,330.9L286.6,330.9z"/>
	<path d="M320.8,246.9h300v150h-300V246.9z"/>
	<path class="st1" d="M354.6,311.7v-24.3h4.1v24.3H354.6z M365.6,311.7v-24.3h3.8c8.2,12.4,9.2,13.8,10.6,16.3
		c-0.1-2.8-0.2-6.2-0.2-16.3h4v24.3h-3.5c-8.5-13.2-9.6-14.9-10.9-16.9c0.1,2.1,0.1,3.4,0.1,16.9H365.6L365.6,311.7z M395,311.7
		v-20.3h-6.4v-4h16.9v4h-6.5v20.3H395z M410.4,311.7v-24.3h13.4v4h-9.3v5.9h8.6v3.9h-8.6v6.7h9.8v3.9H410.4L410.4,311.7z
		 M430.2,311.7v-24.3h4.1v20.3h9.7v4L430.2,311.7L430.2,311.7z M448.2,311.7v-24.3h4.1v20.3h9.7v4L448.2,311.7L448.2,311.7z
		 M466.2,311.7v-24.3h4.1v24.3H466.2z M486.9,312.1c-6.6,0-11-5-11-12.5c0-7.6,4.8-12.6,11.2-12.6c3.9,0,5.9,0.7,7.4,1.8v4.4
		c-1.7-1.6-4-2.3-6.6-2.3c-4.5,0-7.6,3.3-7.6,8.8c0,5.7,3.2,8.6,7.3,8.6c1.7,0,3.1-0.4,3.9-0.8v-4.7h-4.2v-3.9h8.1v11.2
		C493.5,311.2,490.4,312.1,486.9,312.1L486.9,312.1z M501.7,311.7v-24.3h13.4v4h-9.3v5.9h8.6v3.9h-8.6v6.7h9.8v3.9H501.7
		L501.7,311.7z M521.6,311.7v-24.3h3.8c8.2,12.4,9.2,13.8,10.6,16.3c-0.1-2.8-0.2-6.2-0.2-16.3h4v24.3h-3.5
		c-8.5-13.2-9.6-14.9-10.9-16.9c0.1,2.1,0.1,3.4,0.1,16.9H521.6z M556.4,312.1c-6.2,0-11-4.8-11-12.4c0-7.6,4.7-12.7,11.1-12.7
		c3.1,0,5.3,0.5,7,1.8v4.4c-1.7-1.7-4-2.3-6.2-2.3c-4.5,0-7.6,3.1-7.6,8.8c0,5.9,3.5,8.6,7.7,8.6c2.3,0,4.3-0.7,6-2.1v4.1
		C561.6,311.5,559.5,312.1,556.4,312.1z M568.7,311.7v-24.3h13.4v4h-9.3v5.9h8.6v3.9h-8.6v6.7h9.8v3.9H568.7L568.7,311.7z
		 M434.6,332v14c0,1.7,0.2,2.9,0.5,4c0.6,2,2.4,2.9,4.7,2.9c2.5,0,4.2-1.1,4.8-3.2c0.3-1.1,0.4-2.3,0.4-3.8V332h4v14
		c0,2.4-0.3,4.3-0.8,5.8c-1.1,3.2-4.2,5-8.5,5c-3.9,0-7-1.5-8.2-4.8c-0.6-1.5-0.8-3.4-0.8-5.8V332L434.6,332L434.6,332L434.6,332z
		 M455.7,356.3V332h3.8c8.2,12.4,9.2,13.8,10.6,16.3c-0.1-2.8-0.2-6.2-0.2-16.3h4v24.3h-3.5c-8.5-13.2-9.6-14.9-10.8-16.9
		c0.1,2.1,0.1,3.4,0.1,16.9L455.7,356.3L455.7,356.3z M480.8,356.3V332h4.1v24.3H480.8L480.8,356.3z M496.1,356.3V336h-6.4v-4h16.9
		v4h-6.5v20.3H496.1L496.1,356.3z"/>
</g>
</svg>
